<svg version="1.1" id="Layer_1" xmlns="http://www.w3.org/2000/svg" x="0" y="0" viewBox="0 0 501.551 501.551" xml:space="preserve"><path d="M119.641 441.992V207.935c0-2.09 0-3.135-1.045-5.225 0-1.045-1.045-3.135-2.09-4.18l-2.09-3.135-29.257-50.155-19.853-34.482-17.763 34.482-29.257 50.155-2.09 3.135c-1.045 1.045-1.045 2.09-2.09 4.18 0 1.045-1.045 3.135-1.045 5.225v235.102h106.58v-1.045z" fill="#ffd15c"/><path d="M119.641 441.992V207.935c0-2.09 0-3.135-1.045-5.225 0-1.045-1.045-3.135-2.09-4.18l-2.09-3.135H88.294v246.596l31.347.001zm-74.188 0V195.396H18.286l-2.09 3.135c-1.045 1.045-1.045 2.09-2.09 4.18 0 1.045-1.045 3.135-1.045 5.225v235.102h32.392v-1.046z" fill="#ff7058"/><path fill="#334a5e" d="M47.543 145.241h39.706l-19.853-34.482z"/><path fill="#f1543f" d="M45.453 195.396h42.841v246.596H45.453z"/><path d="M467.592 55.38H168.751c-11.494 0-20.898 9.404-20.898 20.898v404.375c0 11.494 9.404 20.898 20.898 20.898h298.841c11.494 0 20.898-9.404 20.898-20.898V76.278c0-11.494-9.404-20.898-20.898-20.898z" fill="#acb3ba"/><path fill="#f2f2f2" d="M174.08 81.042h288.392v393.927H174.08z"/><path d="M382.955 35.527h-30.302C352.653 15.673 336.98 0 317.126 0S281.6 15.673 281.6 35.527h-30.302c-11.494 0-20.898 9.404-20.898 20.898v38.661h172.408V56.424c1.045-11.493-8.359-20.897-19.853-20.897zm-64.784 9.404c-8.359 0-14.629-6.269-14.629-14.629s6.269-14.629 14.629-14.629c8.359 0 14.629 6.269 14.629 14.629s-6.269 14.629-14.629 14.629z" fill="#ff7058"/><path fill="#84dbff" d="M194.873 114.939h114.939v118.073H194.873z"/><path d="M332.8 153.6h108.669v24.033H332.8zm0 55.38h108.669v24.033H332.8zm-137.927 55.379h246.596v24.033H194.873zm0 55.38h246.596v24.033H194.873z" fill="#cdd6e0"/><path fill="#84dbff" d="M251.298 375.118h190.171v24.033H251.298z"/><path fill="#54c0eb" d="M251.298 430.498h190.171v24.033H251.298z"/><path d="M308.767 230.922v2.09H193.829v-2.09l6.269-3.135c10.449-4.18 24.033-10.449 30.302-14.629 1.045 0 1.045-1.045 2.09-1.045 0 0 1.045-11.494 1.045-12.539 0 0-6.269-9.404-9.404-17.763-2.09 0-4.18-3.135-5.224-8.359s0-9.404 2.09-9.404c-1.045-10.449-1.045-39.706 31.347-39.706 32.392-1.045 32.392 28.212 31.347 39.706 2.09 0 3.135 5.224 2.09 9.404-1.045 5.224-3.135 8.359-5.224 8.359-2.09 8.359-9.404 17.763-9.404 17.763 0 1.045 1.045 12.539 1.045 12.539s1.045 1.045 2.09 1.045c5.224 4.18 19.853 10.449 30.302 14.629-.002.001 2.088 1.046 4.177 3.135zM14.106 441.992v38.661c0 11.494 9.404 20.898 20.898 20.898h63.739c11.494 0 20.898-9.404 20.898-20.898v-38.661H14.106z" fill="#40596b"/></svg>