<svg version="1.1" id="Capa_1" xmlns="http://www.w3.org/2000/svg" x="0" y="0" viewBox="0 0 60 60" xml:space="preserve"><path d="M20 49c-2.206 0-4 1.794-4 4s1.794 4 4 4 4-1.794 4-4-1.794-4-4-4zm0 6c-1.103 0-2-.897-2-2s.897-2 2-2 2 .897 2 2-.897 2-2 2zM17 5h4a1 1 0 1 0 0-2h-4a1 1 0 1 0 0 2zm7 0h1a1 1 0 1 0 0-2h-1a1 1 0 1 0 0 2z"/><path d="M56 12H38V4.405A4.41 4.41 0 0 0 33.595 0H8.405A4.41 4.41 0 0 0 4 4.405v51.189A4.41 4.41 0 0 0 8.405 60h25.189A4.41 4.41 0 0 0 38 55.595V33h18V12zM8.405 2h25.189A2.408 2.408 0 0 1 36 4.405V6H6V4.405A2.408 2.408 0 0 1 8.405 2zm25.19 56H8.405A2.408 2.408 0 0 1 6 55.595V48h30v7.595A2.408 2.408 0 0 1 33.595 58zM36 46H6V8h30v4H18v21h4v7l9.333-7H36v13zm18-15H30.667L24 36v-5h-4V14h34v17z"/><path d="M25 21h10a1 1 0 1 0 0-2H25a1 1 0 1 0 0 2zm-1 4a1 1 0 0 0 1 1h24a1 1 0 1 0 0-2H25a1 1 0 0 0-1 1z"/></svg>