<svg version="1.1" id="Capa_1" xmlns="http://www.w3.org/2000/svg" x="0" y="0" viewBox="0 0 512 512" xml:space="preserve"><path fill="#7d9bff" d="M167.01 462h178.05v40H167.01z"/><path fill="#edf2fa" d="M216.04 408h80v53.996h-80z"/><path fill="#7d9bff" d="M35.13 350.01H475V408H35.13z"/><path fill="#72d8ff" d="M35.13 95H475v255.01H35.13z"/><path fill="#fff" d="M84 10h344v340.01H84z"/><path fill="#c9f3ff" d="M10 10h104v104H10z"/><path fill="#a0e557" d="M35.132 112.375l46.584-46.584 32.472 32.472-.188 14.112z"/><path d="M302 217.009v119.856c0 7.219 5.852 13.072 13.072 13.072h22.784L364 376.081l26.144-26.144h98.784c7.219 0 13.072-5.852 13.072-13.072V217.009c0-7.219-5.852-13.072-13.072-13.072H315.072c-7.22.001-13.072 5.853-13.072 13.072z" fill="#ffb954"/><path d="M436.525 289.183l-38.225 24.5c-6.63 4.25-15.338-.511-15.338-8.387v-49.002c0-7.876 8.707-12.637 15.338-8.387l38.225 24.501c6.115 3.92 6.115 12.855 0 16.775zm-293.08-84.342l16.416-5.305a50.76 50.76 0 0 0 13.718 7.932l3.614 16.872h29.239l3.614-16.872a50.76 50.76 0 0 0 13.718-7.932l16.416 5.305 14.64-25.313-12.813-11.574a51.229 51.229 0 0 0 0-15.848l12.813-11.574-14.64-25.313-16.416 5.305a50.76 50.76 0 0 0-13.718-7.932l-3.614-16.872h-29.239l-3.614 16.872a50.76 50.76 0 0 0-13.718 7.932l-16.416-5.305-14.64 25.313 12.813 11.574a51.229 51.229 0 0 0 0 15.848l-12.813 11.574 14.64 25.313z" fill="#ff5d5d"/><path d="M384 118.341h-65c-5.522 0-10 4.478-10 10s4.478 10 10 10h65c5.522 0 10-4.478 10-10s-4.478-10-10-10zm0 40h-65c-5.522 0-10 4.478-10 10s4.478 10 10 10h65c5.522 0 10-4.478 10-10s-4.478-10-10-10zM128 295c-5.522 0-10 4.478-10 10s4.478 10 10 10h63.813c5.522 0 10-4.478 10-10s-4.478-10-10-10H128zm106 0c-2.63 0-5.21 1.069-7.07 2.93S224 302.37 224 305s1.069 5.21 2.93 7.069c1.86 1.86 4.44 2.931 7.07 2.931s5.21-1.07 7.069-2.931C242.93 310.21 244 307.63 244 305s-1.07-5.21-2.931-7.07A10.067 10.067 0 0 0 234 295zm0-40H128c-5.522 0-10 4.478-10 10s4.478 10 10 10h106c5.522 0 10-4.478 10-10s-4.478-10-10-10z"/><path d="M488.928 193.938H485v-98.94c0-5.522-4.478-10-10-10h-37V10c0-5.522-4.478-10-10-10H158.667c-5.522 0-10 4.478-10 10s4.478 10 10 10H418v173.938H315.072c-12.722 0-23.072 10.351-23.072 23.072v119.855c0 12.722 10.351 23.072 23.072 23.072h18.642l23.215 23.215c1.953 1.952 4.512 2.929 7.071 2.929s5.118-.977 7.071-2.929l23.215-23.215H465V398H47v-38.002h36.768c.078.002.154.012.232.012s.154-.01.232-.012h180.101c5.522 0 10-4.478 10-10s-4.478-10-10-10H94V124h20c5.522 0 10-4.478 10-10V10c0-5.522-4.478-10-10-10H10C4.478 0 0 4.478 0 10v104c0 5.522 4.478 10 10 10h64v215.998H47v-190.53c0-5.522-4.478-10-10-10s-10 4.478-10 10V408c0 5.522 4.478 10 10 10h169.036v33.996h-39.024c-5.522 0-10 4.478-10 10V502c0 5.522 4.478 10 10 10h178.049c5.522 0 10-4.478 10-10v-40.004c0-5.522-4.478-10-10-10h-39.024V418H475c5.522 0 10-4.478 10-10v-48.063h3.928c12.722 0 23.072-10.351 23.072-23.072V217.01c0-12.722-10.351-23.072-23.072-23.072zM57.649 104l24.066-24.066L104 102.218V104H57.649zM20 20h84v53.933L88.787 58.72c-3.906-3.904-10.236-3.904-14.143 0L29.364 104H20V20zm315.061 472H177.012v-20.004H335.06V492h.001zm-49.025-40.004h-60V418h60v33.996zM438 104.998h27v88.939h-27v-88.939zm54 231.867a3.075 3.075 0 0 1-3.072 3.072h-98.784a10.003 10.003 0 0 0-7.071 2.929L364 361.938l-19.072-19.072a10.003 10.003 0 0 0-7.071-2.929h-22.784a3.075 3.075 0 0 1-3.072-3.072V217.01a3.075 3.075 0 0 1 3.072-3.072H418v6.39c0 5.522 4.478 10 10 10s10-4.478 10-10v-6.39h50.928A3.075 3.075 0 0 1 492 217.01v119.855z"/><path d="M441.922 263.989l-38.226-24.501c-6.145-3.938-13.943-4.212-20.349-.709s-10.386 10.215-10.386 17.516v49.002a19.954 19.954 0 0 0 10.386 17.515 19.948 19.948 0 0 0 20.348-.709l38.226-24.501h.001a19.88 19.88 0 0 0 9.188-16.806 19.878 19.878 0 0 0-9.188-16.807zm-48.96 41.235l.003-48.858 38.113 24.432-38.116 24.426zm-270.86-157.271l9.025 8.152a61.267 61.267 0 0 0 0 7.85l-9.025 8.152a10 10 0 0 0-1.953 12.428l14.641 25.313a9.998 9.998 0 0 0 11.731 4.509l11.549-3.732a60.536 60.536 0 0 0 6.802 3.934l2.544 11.878a10 10 0 0 0 9.778 7.905h29.24a10 10 0 0 0 9.778-7.905l2.544-11.878a60.383 60.383 0 0 0 6.802-3.934l11.549 3.732a10 10 0 0 0 11.731-4.509l14.641-25.313a10 10 0 0 0-1.953-12.428l-9.025-8.152a61.267 61.267 0 0 0 0-7.85l9.025-8.152a10 10 0 0 0 1.953-12.428l-14.641-25.313a9.998 9.998 0 0 0-11.731-4.509l-11.549 3.732a60.617 60.617 0 0 0-6.802-3.933l-2.544-11.878a10 10 0 0 0-9.778-7.905h-29.24a10 10 0 0 0-9.778 7.905l-2.544 11.878a60.617 60.617 0 0 0-6.802 3.933l-11.549-3.732a10.003 10.003 0 0 0-11.731 4.509l-14.641 25.313a10 10 0 0 0 1.953 12.428zm29.395 18.45a41.265 41.265 0 0 1 0-12.746 10.002 10.002 0 0 0-3.176-8.972l-6.81-6.15 6.545-11.316 8.729 2.821a10.005 10.005 0 0 0 9.369-1.745 40.678 40.678 0 0 1 11.014-6.37 9.999 9.999 0 0 0 6.188-7.238l1.921-8.967h13.07l1.921 8.967a9.997 9.997 0 0 0 6.188 7.238 40.678 40.678 0 0 1 11.014 6.37 10.004 10.004 0 0 0 9.369 1.745l8.729-2.821 6.545 11.316-6.81 6.15a10.002 10.002 0 0 0-3.176 8.972 41.265 41.265 0 0 1 0 12.746 10.002 10.002 0 0 0 3.176 8.972l6.81 6.15-6.546 11.316-8.729-2.821a10.001 10.001 0 0 0-9.369 1.745 40.678 40.678 0 0 1-11.014 6.37 9.999 9.999 0 0 0-6.188 7.238l-1.921 8.967h-13.07l-1.921-8.967a9.997 9.997 0 0 0-6.188-7.238 40.678 40.678 0 0 1-11.014-6.37 10 10 0 0 0-9.369-1.745l-8.729 2.821-6.546-11.316 6.81-6.15a9.996 9.996 0 0 0 3.178-8.972zM202.49 61.069c1.859-1.859 2.93-4.439 2.93-7.069s-1.07-5.21-2.93-7.07a10.093 10.093 0 0 0-7.07-2.93c-2.641 0-5.21 1.069-7.08 2.93-1.86 1.86-2.92 4.44-2.92 7.07s1.06 5.21 2.92 7.069A10.098 10.098 0 0 0 195.42 64c2.63 0 5.2-1.07 7.07-2.931zm-36.75 0A10.076 10.076 0 0 0 168.67 54c0-2.641-1.07-5.21-2.93-7.07a10.093 10.093 0 0 0-7.07-2.93c-2.641 0-5.21 1.069-7.07 2.93a10.016 10.016 0 0 0-2.93 7.07c0 2.63 1.06 5.21 2.93 7.069A10.059 10.059 0 0 0 158.67 64c2.63 0 5.2-1.07 7.07-2.931zM384 44H232.163c-5.522 0-10 4.478-10 10s4.478 10 10 10H384c5.522 0 10-4.478 10-10s-4.478-10-10-10zM37.87 51c2.64 0 5.22-1.07 7.069-2.931 1.87-1.859 2.94-4.439 2.94-7.069s-1.07-5.21-2.94-7.07A10.05 10.05 0 0 0 37.87 31c-2.63 0-5.2 1.069-7.07 2.93-1.86 1.86-2.93 4.44-2.93 7.07s1.069 5.21 2.93 7.069A10.09 10.09 0 0 0 37.87 51z"/></svg>