<svg height="512pt" viewBox="0 0 512 512" width="512pt" xmlns="http://www.w3.org/2000/svg"><path d="M136 320h42a23.999 23.999 0 0 0 19.2-9.602l30-40A23.986 23.986 0 0 0 232 256v-72c35.348 0 64 28.652 64 64v64h104c13.254 0 24 10.746 24 24s-10.746 24-24 24v24c0 13.254-10.746 24-24 24v24c0 13.254-10.746 24-24 24v24c0 13.254-10.746 24-24 24h-90l-48-24h-54zm0 0" fill="#ffe082"/><path d="M0 296h136v208H0zm0 0" fill="#dce775"/><path d="M104 456c0 8.836-7.164 16-16 16s-16-7.164-16-16 7.164-16 16-16 16 7.164 16 16zm0 0" fill="#fff"/><path d="M328 168v-48h-56l48-48V8h184v160zm0 0" fill="#ff8a65"/><path d="M184 168h-56l-32 40-32-40H8V8h176zm0 0" fill="#cfd8dc"/><path d="M408 48.23c-10.98-10.98-28.785-10.98-39.77 0-10.98 10.985-10.98 28.79 0 39.77L408 127.77 447.77 88c10.98-10.98 10.98-28.785 0-39.77-10.985-10.98-28.79-10.98-39.77 0zM32 48h128v16H32zm0 32h128v16H32zm0 32h80v16H32zm80 256H96v-32H64v-16h48zm0 0" fill="#fff"/><path d="M400 304h-96v-56c-.043-39.746-32.254-71.957-72-72h-8v80a16.226 16.226 0 0 1-3.2 9.602l-30 40A16.092 16.092 0 0 1 178 312h-34v-24H0v16h128v192H0v16h144v-24h44.113l48 24H328c17.672 0 32-14.328 32-32v-17.016c14.121-3.66 23.984-16.398 24-30.984v-17.016c14.121-3.66 23.984-16.398 24-30.984v-17.008c15.617-4.015 25.809-19.027 23.777-35.023-2.03-16-15.652-27.985-31.777-27.969zm0 48h-60v16h52v16c0 8.836-7.164 16-16 16h-60v16h52v16c0 8.836-7.164 16-16 16h-36v16h28v16c0 8.836-7.164 16-16 16h-88.113l-48-24H144V328h34a32.154 32.154 0 0 0 25.602-12.8l30.007-40A32.23 32.23 0 0 0 240 256v-63.434c27.535 4.016 47.965 27.61 48 55.434v72h112c8.836 0 16 7.164 16 16s-7.164 16-16 16zm0 0"/><path d="M112 456c0-13.254-10.746-24-24-24s-24 10.746-24 24 10.746 24 24 24 24-10.746 24-24zm-32 0a8 8 0 1 1 16 0 8 8 0 0 1-16 0zM312 0v68.688L252.687 128H320v48h192V0zm184 160H336v-48h-44.688L328 75.312V16h168zM96 220.8l35.84-44.8H192V0H0v176h60.16zM16 16h160v144h-51.84L96 195.2 67.84 160H16zm0 0"/><path d="M408 139.078l45.426-45.422c13.105-13.105 14.164-34.008 2.449-48.37C444.16 30.921 423.473 27.753 408 37.96c-15.473-10.207-36.16-7.04-47.875 7.324-11.715 14.363-10.656 35.266 2.45 48.371zm-34.113-85.191c7.87-7.828 20.586-7.828 28.457 0L408 59.543l5.656-5.656c7.86-7.856 20.598-7.856 28.457 0 7.856 7.86 7.856 20.597 0 28.457L408 116.457l-34.113-34.113c-7.832-7.867-7.832-20.586 0-28.457zm0 0"/></svg>