<svg version="1.1" id="Capa_1" xmlns="http://www.w3.org/2000/svg" x="0" y="0" viewBox="0 0 54 54" xml:space="preserve"><path d="M27 8c-9.374 0-17 7.626-17 17a16.96 16.96 0 0 0 11 15.9V50a1 1 0 0 0 1 1h1v2a1 1 0 0 0 1 1h6a1 1 0 0 0 1-1v-2h1a1 1 0 0 0 1-1v-9.1A16.96 16.96 0 0 0 44 25c0-9.374-7.626-17-17-17zm3 41a1 1 0 0 0-1 1v2h-4v-2a1 1 0 0 0-1-1h-1v-5h8v5h-1zm1.688-9.758a1 1 0 0 0-.688.95V42h-8v-1.808a1 1 0 0 0-.688-.95A14.966 14.966 0 0 1 12 25c0-8.271 6.729-15 15-15s15 6.729 15 15c0 6.49-4.145 12.214-10.312 14.242zM27 6a1 1 0 0 0 1-1V1a1 1 0 1 0-2 0v4a1 1 0 0 0 1 1zm24 18h-4a1 1 0 1 0 0 2h4a1 1 0 1 0 0-2zM7 24H3a1 1 0 1 0 0 2h4a1 1 0 1 0 0-2zM43.264 7.322l-2.828 2.828a.999.999 0 1 0 1.414 1.414l2.828-2.828a.999.999 0 1 0-1.414-1.414zM12.15 38.436l-2.828 2.828a.999.999 0 1 0 1.414 1.414l2.828-2.828a.999.999 0 1 0-1.414-1.414zm29.7 0a.999.999 0 1 0-1.414 1.414l2.828 2.828a.997.997 0 0 0 1.414 0 .999.999 0 0 0 0-1.414l-2.828-2.828zm-29.7-26.872a.997.997 0 0 0 1.414 0 .999.999 0 0 0 0-1.414l-2.828-2.828a.999.999 0 1 0-1.414 1.414l2.828 2.828z"/><path d="M27 13c-6.617 0-12 5.383-12 12a1 1 0 1 0 2 0c0-5.514 4.486-10 10-10a1 1 0 1 0 0-2z"/></svg>