<svg version="1.1" id="Capa_1" xmlns="http://www.w3.org/2000/svg" x="0" y="0" viewBox="0 0 512 512" xml:space="preserve"><path fill="#edf2fa" d="M260.621 416.688H502V85.21L426.779 10H204.424v406.688z"/><path fill="#ffb954" d="M225 238.86h48V318h-48z"/><path fill="#7d9bff" d="M426.779 10.964v74.257h74.257"/><path d="M49 318h360c21.539 0 39 17.461 39 39v106c0 21.539-17.461 39-39 39H49c-21.539 0-39-17.461-39-39V357c0-21.539 17.461-39 39-39z" fill="#b3b6c3"/><path d="M92.527 26.822c-45.562 0-82.498 36.936-82.498 82.498s36.936 82.498 82.498 82.498 82.498-36.936 82.498-82.498H92.527V26.822z" fill="#ff5d5d"/><path d="M92.527 109.32V26.822c-22.781 0-43.406 9.234-58.335 24.163l58.335 58.335z" fill="#2e9de3"/><path d="M92.527 10v99.32h99.32c0-54.853-44.467-99.32-99.32-99.32z" fill="#ffb954"/><path fill="#ff5d5d" d="M313.05 276h48v42h-48z"/><path fill="#a0e557" d="M400 254h48v64h-48z"/><path d="M509.07 78.139l-75.22-75.21A10 10 0 0 0 426.779 0H204.424c-5.522 0-10 4.478-10 10v31c0 5.522 4.478 10 10 10s10-4.478 10-10V20h202.355v65.221c0 5.522 4.478 10 10 10H492v311.467h-34V357c0-10.855-3.554-20.893-9.551-29.023 5.313-.237 9.551-4.606 9.551-9.977v-64c0-5.522-4.478-10-10-10h-48c-5.522 0-10 4.478-10 10v54h-18.947v-32c0-5.522-4.478-10-10-10h-48c-5.522 0-10 4.478-10 10v32H283v-69.137c0-5.522-4.478-10-10-10h-26.333c-5.522 0-10 4.478-10 10s4.478 10 10 10H263V308h-24v-29.167C239 260.729 224.271 246 206.167 246h-16.893c-10.201 0-18.5-8.299-18.5-18.5s8.299-18.5 18.5-18.5h136.393c5.522 0 10-4.478 10-10s-4.478-10-10-10H189.274c-21.229 0-38.5 17.271-38.5 38.5s17.271 38.5 38.5 38.5h16.893c7.076 0 12.833 5.757 12.833 12.833V308H49c-27.019 0-49 21.981-49 49v106c0 27.019 21.981 49 49 49h360c27.019 0 49-21.981 49-49v-36.313h44c5.522 0 10-4.478 10-10V85.21a9.998 9.998 0 0 0-2.93-7.071zM410 264h28v44h-28v-44zm-86.947 22h28v22h-28v-22zM438 463c0 15.99-13.01 29-29 29H49c-15.99 0-29-13.01-29-29V357c0-15.99 13.01-29 29-29h360c15.99 0 29 13.01 29 29v106zm-1.221-428.86l41.087 41.081h-41.087V34.14z"/><path d="M101.439 381.439c2.63 0 5.21-1.069 7.07-2.93s2.93-4.44 2.93-7.07-1.069-5.21-2.93-7.08c-1.86-1.85-4.44-2.92-7.07-2.92s-5.21 1.07-7.069 2.92c-1.86 1.87-2.931 4.45-2.931 7.08s1.07 5.21 2.931 7.07a10.069 10.069 0 0 0 7.069 2.93zm50.228-20.001h-7.708c-5.522 0-10 4.478-10 10s4.478 10 10 10h7.708c5.522 0 10-4.478 10-10s-4.478-10-10-10zm34.812 20.001c2.63 0 5.21-1.069 7.07-2.93 1.86-1.87 2.93-4.44 2.93-7.07s-1.069-5.21-2.93-7.069c-1.86-1.87-4.44-2.931-7.07-2.931s-5.21 1.061-7.069 2.931c-1.86 1.859-2.931 4.439-2.931 7.069s1.07 5.21 2.931 7.07a10.07 10.07 0 0 0 7.069 2.93zm42.521 0c2.63 0 5.21-1.069 7.069-2.93a10.077 10.077 0 0 0 2.931-7.07c0-2.64-1.07-5.21-2.931-7.069-1.859-1.86-4.439-2.931-7.069-2.931s-5.21 1.07-7.07 2.931a10.056 10.056 0 0 0-2.93 7.069c0 2.63 1.069 5.21 2.93 7.07s4.44 2.93 7.07 2.93zm42.52 0c2.63 0 5.21-1.069 7.07-2.93s2.93-4.44 2.93-7.07c0-2.64-1.069-5.21-2.93-7.069-1.86-1.87-4.44-2.931-7.07-2.931s-5.21 1.061-7.069 2.931a10.04 10.04 0 0 0-2.931 7.069c0 2.63 1.07 5.21 2.931 7.07a10.067 10.067 0 0 0 7.069 2.93zm42.52 0c2.63 0 5.21-1.069 7.069-2.93 1.86-1.86 2.931-4.44 2.931-7.07s-1.07-5.21-2.931-7.069c-1.859-1.86-4.439-2.931-7.069-2.931s-5.21 1.07-7.07 2.931a10.056 10.056 0 0 0-2.93 7.069c0 2.63 1.069 5.21 2.93 7.07s4.44 2.93 7.07 2.93zm42.52 0c2.63 0 5.21-1.069 7.07-2.93s2.93-4.44 2.93-7.07c0-2.64-1.069-5.21-2.93-7.069-1.86-1.87-4.44-2.931-7.07-2.931s-5.21 1.061-7.069 2.931a10.057 10.057 0 0 0-2.931 7.069c0 2.63 1.07 5.21 2.931 7.07a10.067 10.067 0 0 0 7.069 2.93zm-255.121 70.5c-2.63 0-5.21 1.07-7.069 2.931a10.057 10.057 0 0 0-2.931 7.069c0 2.63 1.07 5.21 2.931 7.07 1.859 1.86 4.439 2.93 7.069 2.93s5.21-1.069 7.07-2.93 2.93-4.44 2.93-7.07c0-2.64-1.069-5.21-2.93-7.069a10.077 10.077 0 0 0-7.07-2.931zm42.521 0c-2.63 0-5.21 1.061-7.07 2.931-1.86 1.859-2.93 4.439-2.93 7.069s1.069 5.21 2.93 7.07 4.44 2.93 7.07 2.93 5.21-1.069 7.069-2.93a10.077 10.077 0 0 0 2.931-7.07c0-2.64-1.07-5.21-2.931-7.069a10.03 10.03 0 0 0-7.069-2.931zm127.771-.001h-85.252c-5.522 0-10 4.478-10 10s4.478 10 10 10h42.482l.039.002.039-.002h42.442l.039.002.039-.002h.173c5.522 0 10-4.478 10-10s-4.478-10-10.001-10zm42.309.001c-2.63 0-5.21 1.07-7.07 2.931a10.056 10.056 0 0 0-2.93 7.069c0 2.63 1.069 5.21 2.93 7.07s4.44 2.93 7.07 2.93 5.21-1.069 7.069-2.93a10.077 10.077 0 0 0 2.931-7.07c0-2.64-1.07-5.21-2.931-7.069a10.073 10.073 0 0 0-7.069-2.931zm49.612-.001h-7.091c-5.522 0-10 4.478-10 10s4.478 10 10 10h7.091c5.522 0 10-4.478 10-10s-4.477-10-10-10zM58.069 406.689c-2.63 0-5.21 1.061-7.069 2.92-1.86 1.87-2.931 4.45-2.931 7.08s1.07 5.21 2.931 7.07a10.072 10.072 0 0 0 7.069 2.93 10.07 10.07 0 0 0 7.07-2.93c1.87-1.86 2.93-4.44 2.93-7.07s-1.06-5.21-2.93-7.08a10.068 10.068 0 0 0-7.07-2.92zm48.931-.001h-6.195c-5.522 0-10 4.478-10 10s4.478 10 10 10H107c5.522 0 10-4.478 10-10s-4.478-10-10-10zm36.54 20.001c2.62 0 5.2-1.069 7.069-2.93a10.077 10.077 0 0 0 2.931-7.07c0-2.64-1.07-5.21-2.931-7.069a10.065 10.065 0 0 0-7.069-2.931c-2.641 0-5.21 1.061-7.08 2.931a10.046 10.046 0 0 0-2.92 7.069c0 2.63 1.06 5.21 2.92 7.07a10.093 10.093 0 0 0 7.08 2.93zm42.73 0c2.63 0 5.21-1.069 7.07-2.93s2.93-4.44 2.93-7.07c0-2.64-1.069-5.21-2.93-7.069-1.86-1.86-4.44-2.931-7.07-2.931s-5.21 1.07-7.069 2.931c-1.86 1.859-2.931 4.439-2.931 7.069s1.07 5.21 2.931 7.07a10.067 10.067 0 0 0 7.069 2.93zm42.73-.001h7.333c5.522 0 10-4.478 10-10s-4.478-10-10-10H229c-5.522 0-10 4.478-10 10s4.478 10 10 10zm51.333-20h-8.602c-5.522 0-10 4.478-10 10s4.478 10 10 10h8.602c5.522 0 10-4.478 10-10s-4.478-10-10-10zm34.127.001c-2.63 0-5.21 1.07-7.07 2.931a10.056 10.056 0 0 0-2.93 7.069c0 2.63 1.069 5.21 2.93 7.07s4.44 2.93 7.07 2.93c2.64 0 5.21-1.069 7.069-2.93a10.034 10.034 0 0 0 2.931-7.07c0-2.64-1.061-5.21-2.931-7.069a10.055 10.055 0 0 0-7.069-2.931zm42.729 0c-2.63 0-5.199 1.061-7.069 2.92-1.86 1.87-2.92 4.45-2.92 7.08s1.06 5.21 2.92 7.07a10.091 10.091 0 0 0 7.069 2.93c2.641 0 5.21-1.069 7.07-2.93 1.87-1.86 2.94-4.44 2.94-7.07s-1.07-5.21-2.94-7.08a10.05 10.05 0 0 0-7.07-2.92zm42.741 0c-2.64 0-5.21 1.061-7.07 2.931-1.859 1.859-2.93 4.439-2.93 7.069s1.07 5.21 2.93 7.07a10.06 10.06 0 0 0 7.07 2.93c2.63 0 5.21-1.069 7.07-2.93 1.859-1.87 2.93-4.44 2.93-7.07s-1.07-5.21-2.93-7.069a10.034 10.034 0 0 0-7.07-2.931zM360.333 199c0 5.522 4.478 10 10 10h66.753c5.522 0 10-4.478 10-10s-4.478-10-10-10h-66.753c-5.522 0-10 4.478-10 10zm-267.806 2.817c47.624 0 86.953-36.18 91.955-82.497h7.364c5.522 0 10-4.478 10-10C201.847 49.041 152.807 0 92.527 0c-5.522 0-10 4.478-10 10v7.365C36.209 22.367.029 61.695.029 109.32c0 51.003 41.494 92.497 92.498 92.497zm10-174.995v-6.267c41.281 4.618 74.146 37.483 78.764 78.765h-78.764V26.822zm-20 10.688v47.668L48.856 51.506c9.64-7.3 21.144-12.261 33.671-13.996zM34.713 65.648l50.743 50.744.006.005a9.97 9.97 0 0 0 7.065 2.924h71.81c-4.885 35.261-35.226 62.497-71.81 62.497-39.976 0-72.498-32.522-72.498-72.497 0-16.39 5.479-31.517 14.684-43.673zM256.268 118h60.881c5.522 0 10-4.478 10-10s-4.478-10-10-10h-60.881c-5.522 0-10 4.478-10 10s4.477 10 10 10zm85.001-10c0 5.522 4.478 10 10 10h34.121c5.522 0 10-4.478 10-10s-4.478-10-10-10h-34.121c-5.523 0-10 4.478-10 10zm.403-54h-85.404c-5.522 0-10 4.478-10 10s4.478 10 10 10h85.404c5.522 0 10-4.478 10-10s-4.478-10-10-10zm48.458 17.069A10.072 10.072 0 0 0 393.06 64c0-2.641-1.069-5.21-2.93-7.07S385.7 54 383.06 54c-2.63 0-5.21 1.069-7.069 2.93A10.059 10.059 0 0 0 373.06 64c0 2.63 1.07 5.21 2.931 7.069A10.068 10.068 0 0 0 383.06 74c2.64 0 5.21-1.07 7.07-2.931zM256.268 162h80.487c5.522 0 10-4.478 10-10s-4.478-10-10-10h-80.487c-5.522 0-10 4.478-10 10s4.477 10 10 10zm119.652-2.931c1.859-1.859 2.93-4.439 2.93-7.069s-1.07-5.21-2.93-7.07a10.1 10.1 0 0 0-7.08-2.93c-2.63 0-5.21 1.069-7.07 2.93-1.859 1.86-2.93 4.44-2.93 7.07s1.07 5.21 2.93 7.069c1.87 1.86 4.44 2.931 7.07 2.931s5.21-1.07 7.08-2.931zM402.96 142c-2.63 0-5.2 1.069-7.061 2.93-1.87 1.86-2.939 4.44-2.939 7.07s1.069 5.21 2.939 7.069A10.04 10.04 0 0 0 402.96 162c2.64 0 5.21-1.07 7.08-2.931 1.859-1.859 2.93-4.439 2.93-7.069s-1.07-5.21-2.93-7.07a10.095 10.095 0 0 0-7.08-2.93zm41.2 17.069c1.859-1.859 2.93-4.439 2.93-7.069s-1.07-5.21-2.93-7.07-4.44-2.93-7.07-2.93c-2.64 0-5.21 1.069-7.07 2.93-1.87 1.86-2.93 4.44-2.93 7.07s1.06 5.21 2.93 7.069a10.06 10.06 0 0 0 7.07 2.931c2.63 0 5.2-1.07 7.07-2.931z"/></svg>