<svg version="1.1" id="Capa_1" xmlns="http://www.w3.org/2000/svg" x="0" y="0" viewBox="0 0 60 60" xml:space="preserve"><path d="M55.014 45.389l-9.553-4.776A2.63 2.63 0 0 1 44 38.248v-3.381c.229-.28.47-.599.719-.951a22.886 22.886 0 0 0 2.954-5.799A3.968 3.968 0 0 0 50 24.5v-4c0-.963-.36-1.896-1-2.625v-5.319c.056-.55.276-3.824-2.092-6.525C44.854 3.688 41.521 2.5 37 2.5s-7.854 1.188-9.908 3.53c-1.435 1.637-1.918 3.481-2.064 4.805C23.314 9.949 21.294 9.5 19 9.5c-10.389 0-10.994 8.855-11 9v4.579c-.648.706-1 1.521-1 2.33v3.454c0 1.079.483 2.085 1.311 2.765.825 3.11 2.854 5.46 3.644 6.285v2.743c0 .787-.428 1.509-1.171 1.915l-6.653 4.173A7.924 7.924 0 0 0 0 53.703V57.5h60v-4.043a8.973 8.973 0 0 0-4.986-8.068zM14 53.262V55.5H2v-1.797c0-2.17 1.184-4.164 3.141-5.233l6.652-4.173a4.143 4.143 0 0 0 2.161-3.641v-3.591l-.318-.297c-.026-.024-2.683-2.534-3.468-5.955l-.091-.396-.342-.22A1.59 1.59 0 0 1 9 28.863v-3.454c0-.36.245-.788.671-1.174l.329-.297-.002-5.38c.018-.287.539-7.058 9.002-7.058 2.393 0 4.408.553 6 1.644v4.731c-.64.729-1 1.662-1 2.625v4c0 .304.035.603.101.893.027.116.081.222.118.334.055.168.099.341.176.5l.003.005c.256.528.629 1 1.099 1.377l.016.054c.06.229.123.457.191.68l.081.261c.014.046.031.093.046.139.035.108.069.215.105.321.06.175.123.356.196.553.031.082.065.156.097.237.082.209.164.411.25.611.021.048.039.1.06.147l.056.126c.026.058.053.11.079.167.098.214.194.421.294.621l.047.099c.063.125.126.243.189.363a21.809 21.809 0 0 0 .888 1.539l.085.135c.242.375.452.679.626.916l.125.17.071.097v3.309c0 .968-.528 1.856-1.377 2.32l-2.646 1.443-.461-.041-.188.395-5.626 3.069A9.021 9.021 0 0 0 14 53.262zM58 55.5H16v-2.238a7.016 7.016 0 0 1 3.659-6.164l8.921-4.866A4.644 4.644 0 0 0 31 38.155v-4.019l-.194-.232-.038-.045c-.002-.003-.064-.078-.165-.21a9.504 9.504 0 0 1-.205-.275l-.003-.005a18.167 18.167 0 0 1-.544-.8l-.014-.022c-.098-.153-.202-.32-.308-.497l-.024-.04a20.468 20.468 0 0 1-.705-1.283l-.001-.002a20.237 20.237 0 0 1-.378-.802l-.052-.116c-.055-.125-.11-.256-.166-.391l-.06-.15c-.052-.131-.105-.263-.161-.414a16.51 16.51 0 0 1-.29-.849l-.055-.178-.019-.061a15.65 15.65 0 0 1-.26-.971l-.091-.396-.341-.22A1.994 1.994 0 0 1 26 24.5v-4c0-.561.238-1.084.67-1.475l.33-.297v-6.582l-.027-.021c-.034-.722.009-2.935 1.623-4.776C30.253 5.458 33.081 4.5 37 4.5c3.905 0 6.727.951 8.386 2.828 1.947 2.201 1.625 5.017 1.623 5.041L47 18.728l.33.298c.432.39.67.913.67 1.474v4c0 .873-.572 1.637-1.422 1.899l-.498.153-.16.495a20.934 20.934 0 0 1-2.834 5.713c-.297.421-.586.794-.837 1.079l-.249.284v4.125c0 1.77.983 3.361 2.566 4.153l9.553 4.776A6.982 6.982 0 0 1 58 53.457V55.5z"/></svg>