<svg height="512pt" viewBox="0 -12 512.064 512" width="512pt" xmlns="http://www.w3.org/2000/svg"><path d="M256.07 416.031v24h-208v-96h208v24l-8 8h-8v8l-8 8 8 8v8h8zm0 0" fill="#fff"/><path d="M280.07 392.031l-8 8v8h-8l-8 8-8-8h-8v-8l-8-8 8-8v-8h8l8-8 8 8h8v8zm0 0" fill="#ed5565"/><path d="M464.07 344.031v96h-208v-24l8-8h8v-8l8-8-8-8v-8h-8l-8-8v-24zm-64-200l-48 32v-64zm0 0" fill="#fff"/><path d="M464.07 80.031v128h-184v-128zm-112 96l48-32-48-32zm0 0" fill="#ed5565"/><path d="M503.91 24.031v16H7.992v-16c0-8.879 7.192-16 16-16H487.91c8.883 0 16 7.121 16 16zm0 0" fill="#ccd1d9"/><path d="M232.07 208.031v-128h-184v128zm272-168v440H8.152v-440zm-40 400v-96h-416v96zm0-232v-128h-184v128zm0 0" fill="#e6e9ed"/><path d="M104.07 168.031l23.762 29.68-7.762 10.32h-48zm0 0" fill="#434a54"/><path d="M127.832 197.71l40.238-53.679 48 64h-96zm0 0" fill="#656d78"/><path d="M232.07 80.031v128h-16l-48-64-40.238 53.68-23.762-29.68-32 40h-24v-128zm0 0" fill="#a0d468"/><path d="M120.055 216.031a7.949 7.949 0 0 1-4.79-1.597c-3.538-2.649-4.257-7.664-1.6-11.196l48-64c2.648-3.535 7.67-4.238 11.19-1.597 3.536 2.648 4.258 7.664 1.602 11.191l-48 64a7.959 7.959 0 0 1-6.402 3.2zm0 0"/><path d="M216.07 216.031a7.977 7.977 0 0 1-6.406-3.199l-48-64c-2.656-3.527-1.937-8.543 1.602-11.191 3.52-2.657 8.543-1.946 11.191 1.597l48 64c2.656 3.532 1.934 8.547-1.602 11.196a7.921 7.921 0 0 1-4.785 1.597zm-144.015 0a7.957 7.957 0 0 1-4.993-1.75c-3.445-2.77-4.007-7.8-1.246-11.25l32-40c2.77-3.437 7.801-4.015 11.246-1.246 3.45 2.766 4.008 7.8 1.25 11.246l-32 40a8.015 8.015 0 0 1-6.257 3zm0 0"/><path d="M127.809 205.703a8.015 8.015 0 0 1-6.258-3l-23.735-29.672c-2.761-3.457-2.191-8.488 1.246-11.246 3.465-2.77 8.489-2.183 11.25 1.246l23.735 29.672c2.762 3.457 2.191 8.488-1.246 11.25a7.973 7.973 0 0 1-4.992 1.75zm-39.504-77.672c-4.426 0-8.04-3.574-8.04-8 0-4.422 3.536-8 7.95-8h.09a8 8 0 0 1 8 8c0 4.426-3.586 8-8 8zm-56.067-96c-4.422 0-8.039-3.574-8.039-8 0-4.422 3.535-8 7.953-8h.086c4.418 0 8 3.578 8 8 0 4.426-3.582 8-8 8zm24 0c-4.422 0-8.039-3.574-8.039-8 0-4.422 3.535-8 7.953-8h.086c4.418 0 8 3.578 8 8 0 4.426-3.582 8-8 8zm24 0c-4.422 0-8.039-3.574-8.039-8 0-4.422 3.535-8 7.953-8h.086c4.418 0 8 3.578 8 8 0 4.426-3.582 8-8 8zm0 0"/><path d="M504.063 488.031H8.144a7.99 7.99 0 0 1-8-8v-440c0-4.422 3.574-8 8-8h495.918c4.425 0 8 3.578 8 8v440c0 4.426-3.575 8-8 8zm-487.918-16h479.918v-424H16.144zm0 0"/><path d="M8 32.031a7.99 7.99 0 0 1-8-8c0-13.23 10.77-24 24-24 4.426 0 8 3.578 8 8 0 4.426-3.574 8-8 8-4.414 0-8 3.586-8 8 0 4.426-3.574 8-8 8zm0 0"/><path d="M8 48.031a7.99 7.99 0 0 1-8-8v-16c0-4.422 3.574-8 8-8s8 3.578 8 8v16c0 4.426-3.574 8-8 8zm495.922-16a7.99 7.99 0 0 1-8-8c0-4.414-3.586-8-8-8a7.99 7.99 0 0 1-8-8c0-4.422 3.574-8 8-8 13.23 0 24 10.77 24 24 0 4.426-3.578 8-8 8zm0 0"/><path d="M503.922 48.031a7.99 7.99 0 0 1-8-8v-16c0-4.422 3.574-8 8-8 4.422 0 8 3.578 8 8v16c0 4.426-3.578 8-8 8zm-16-32H24a7.99 7.99 0 0 1-8-8c0-4.422 3.574-8 8-8h463.922c4.422 0 8 3.578 8 8 0 4.426-3.578 8-8 8zm-255.859 200h-184c-4.422 0-8-3.574-8-8v-128c0-4.422 3.578-8 8-8h184c4.425 0 8 3.578 8 8v128c0 4.426-3.575 8-8 8zm-176-16h168v-112h-168zm176 48h-184c-4.422 0-8-3.574-8-8 0-4.422 3.578-8 8-8h184c4.425 0 8 3.578 8 8 0 4.426-3.575 8-8 8zm0 32h-184c-4.422 0-8-3.574-8-8 0-4.422 3.578-8 8-8h184c4.425 0 8 3.578 8 8 0 4.426-3.575 8-8 8zm-96 32h-88c-4.422 0-8-3.574-8-8 0-4.422 3.578-8 8-8h88c4.425 0 8 3.578 8 8 0 4.426-3.575 8-8 8zm328-96h-184c-4.422 0-8-3.574-8-8v-128c0-4.422 3.578-8 8-8h184c4.425 0 8 3.578 8 8v128c0 4.426-3.575 8-8 8zm-176-16h168v-112h-168zm176 48h-184c-4.422 0-8-3.574-8-8 0-4.422 3.578-8 8-8h184c4.425 0 8 3.578 8 8 0 4.426-3.575 8-8 8zm0 32h-184c-4.422 0-8-3.574-8-8 0-4.422 3.578-8 8-8h184c4.425 0 8 3.578 8 8 0 4.426-3.575 8-8 8zm-104 32h-80c-4.422 0-8-3.574-8-8 0-4.422 3.578-8 8-8h80c4.425 0 8 3.578 8 8 0 4.426-3.575 8-8 8zm104 136h-416c-4.422 0-8-3.574-8-8v-96c0-4.422 3.578-8 8-8h416c4.425 0 8 3.578 8 8v96c0 4.426-3.575 8-8 8zm-408-16h400v-80h-400zm0 0"/><path d="M256.063 424.031a7.99 7.99 0 0 1-5.657-2.344l-5.652-5.656h-4.691c-4.422 0-8-3.574-8-8v-4.687l-5.637-5.64a7.991 7.991 0 0 1-.012-11.306l5.649-5.664v-4.703c0-4.422 3.578-8 8-8h4.69l5.653-5.656a7.99 7.99 0 0 1 11.313 0l5.656 5.656h4.688c4.425 0 8 3.578 8 8v4.696l5.664 5.64a7.972 7.972 0 0 1 2.351 5.656 7.97 7.97 0 0 1-2.336 5.657l-5.672 5.68-.007 4.687a7.992 7.992 0 0 1-8 7.984h-4.688l-5.656 5.656a7.977 7.977 0 0 1-5.656 2.344zm-8-24c2.128 0 4.16.84 5.656 2.344l2.344 2.344 2.343-2.344a7.985 7.985 0 0 1 5.656-2.344 7.96 7.96 0 0 1 2.344-5.64l2.356-2.352-2.328-2.328a8.034 8.034 0 0 1-2.356-5.649l-.015-.03c-2.125 0-4.16-.84-5.657-2.344l-2.344-2.344-2.343 2.344a7.978 7.978 0 0 1-5.656 2.343v.016c0 2.121-.84 4.152-2.336 5.648l-2.344 2.344 2.336 2.336a7.997 7.997 0 0 1 2.344 5.656zm-56-16h-112c-4.422 0-8-3.574-8-8 0-4.422 3.578-8 8-8h112c4.425 0 8 3.578 8 8 0 4.426-3.575 8-8 8zm-32 32h-48c-4.422 0-8-3.574-8-8 0-4.422 3.578-8 8-8h48c4.425 0 8 3.578 8 8 0 4.426-3.575 8-8 8zm272-32h-112c-4.422 0-8-3.574-8-8 0-4.422 3.578-8 8-8h112c4.425 0 8 3.578 8 8 0 4.426-3.575 8-8 8zm-32 32h-48c-4.422 0-8-3.574-8-8 0-4.422 3.578-8 8-8h48c4.425 0 8 3.578 8 8 0 4.426-3.575 8-8 8zm-48-232c-4.422 0-8-3.574-8-8v-64c0-4.422 3.578-8 8-8 4.425 0 8 3.578 8 8v64c0 4.426-3.575 8-8 8zm0 0"/><path d="M352.07 184.031a7.989 7.989 0 0 1-6.664-3.558 8 8 0 0 1 2.219-11.098l48-32a7.99 7.99 0 0 1 11.094 2.219 7.99 7.99 0 0 1-2.215 11.094l-48 32a8.008 8.008 0 0 1-4.434 1.343zm0 0"/><path d="M400.055 152.031a8.005 8.005 0 0 1-4.43-1.344l-48-32a7.995 7.995 0 0 1-2.219-11.093c2.45-3.684 7.403-4.672 11.098-2.219l48 32a7.995 7.995 0 0 1 2.215 11.098c-1.535 2.312-4.078 3.558-6.664 3.558zm0 0"/></svg>