<svg version="1.1" id="Capa_1" xmlns="http://www.w3.org/2000/svg" x="0" y="0" viewBox="0 0 512.002 512.002" xml:space="preserve"><path d="M460.882 112.99l-25.23 34.785 23.872 57.568 42.441 6.724.036 87.682-42.422 6.754-23.835 57.604 25.247 34.754-61.979 62.021-34.785-25.23-57.568 23.872-6.724 42.441-87.682.036-6.753-42.421-57.604-23.835-34.754 25.247-62.022-61.979 25.23-34.785-23.871-57.568-42.442-6.724L10 212.254l42.422-6.754 23.835-57.604-25.247-34.754 61.979-62.021 34.785 25.23 57.568-23.872 6.724-42.442 87.682-.036 6.754 42.422 57.604 23.835 34.754-25.247 62.022 61.979z" fill="#72d8ff"/><circle cx="255.998" cy="255.999" r="159.998" fill="#fff"/><path d="M120.824 263.726c0-20.912 16.953-37.865 37.865-37.865h25.648v75.728h-25.648c-20.913.002-37.865-16.951-37.865-37.863z" fill="#6a80ff"/><path fill="#d8d8e4" d="M304.333 179.794l-119.998 46.069v75.728l119.998 46.068z"/><path d="M511.965 212.063a10 10 0 0 0-8.436-9.873l-36.912-5.849-19.584-47.227 21.942-30.254a10 10 0 0 0-1.026-12.944l-62.021-61.979a9.998 9.998 0 0 0-12.946-1.017l-30.224 21.957-47.261-19.554-5.873-36.894a10 10 0 0 0-9.876-8.428h-.004l-87.682.036a10 10 0 0 0-9.873 8.435l-5.849 36.914-47.228 19.583-30.252-21.943a10 10 0 0 0-12.944 1.026l-61.978 62.021a10 10 0 0 0-1.018 12.946l21.958 30.225-19.556 47.26-36.894 5.874A10 10 0 0 0 0 212.257l.036 87.682a10 10 0 0 0 8.436 9.873l36.913 5.848 19.584 47.227-21.943 30.254a10 10 0 0 0 1.026 12.945l62.021 61.978a9.999 9.999 0 0 0 12.946 1.017l30.224-21.957 47.261 19.555 5.873 36.894a10 10 0 0 0 9.876 8.428h.004l87.682-.036a10 10 0 0 0 9.873-8.435l5.849-36.914 47.228-19.583 30.254 21.943a9.998 9.998 0 0 0 12.944-1.026l61.978-62.021a10 10 0 0 0 1.018-12.946l-21.958-30.225 19.556-47.259 36.894-5.875a10 10 0 0 0 8.428-9.879l-.038-87.682zm-53.957 84.565a10.001 10.001 0 0 0-7.668 6.052l-23.835 57.603a10 10 0 0 0 1.149 9.701l20.229 27.847-49.909 49.944-27.875-20.218a9.999 9.999 0 0 0-9.701-1.143l-57.568 23.872a9.998 9.998 0 0 0-6.047 7.672l-5.389 34.01-70.607.029-5.411-33.991a10 10 0 0 0-6.053-7.668l-57.604-23.835a10 10 0 0 0-9.701 1.15l-27.846 20.229-49.943-49.909 20.217-27.875a9.999 9.999 0 0 0 1.143-9.701l-23.871-57.568a10 10 0 0 0-7.673-6.047l-34.011-5.388-.028-70.608 33.99-5.412a9.999 9.999 0 0 0 7.668-6.052l23.835-57.604a10 10 0 0 0-1.149-9.701L64.12 114.17l49.909-49.944 27.875 20.217a10.002 10.002 0 0 0 9.701 1.143l57.568-23.872a9.998 9.998 0 0 0 6.047-7.672l5.389-34.01 70.607-.029 5.411 33.991a10 10 0 0 0 6.053 7.668l57.604 23.835a10 10 0 0 0 9.701-1.15l27.846-20.229 49.943 49.91-20.217 27.875a10 10 0 0 0-1.143 9.702l23.872 57.568a9.999 9.999 0 0 0 7.673 6.046l34.01 5.389.028 70.607-33.989 5.413z"/><path d="M149.937 149.937c49.404-49.406 125.371-58.324 184.738-21.688 4.699 2.9 10.861 1.442 13.762-3.258 2.9-4.7 1.441-10.861-3.258-13.762-32.017-19.757-70.355-28.351-107.955-24.192-38.188 4.221-74.208 21.537-101.43 48.757-26.154 26.154-42.766 59.274-48.038 95.781-5.098 35.288 1.179 72.019 17.672 103.43a9.996 9.996 0 0 0 13.502 4.205c4.891-2.567 6.772-8.613 4.205-13.502-30.678-58.427-19.907-129.063 26.802-175.771zm212.258.13a9.919 9.919 0 0 0 7.039 2.918 9.986 9.986 0 0 0 7.075-2.933c3.906-3.899 3.894-10.247-.002-14.157l-.14-.14c-3.928-3.883-10.241-3.832-14.125.096-3.883 3.927-3.831 10.275.097 14.159l.056.057zm24.812 13.49c-4.7 2.901-6.158 9.062-3.258 13.762 36.643 59.369 27.726 135.339-21.684 184.748-47.29 47.29-121.021 57.525-179.303 24.885-4.82-2.697-10.913-.98-13.611 3.839-2.699 4.818-.98 10.913 3.838 13.611 25.29 14.164 54.206 21.58 83.257 21.58 7.335 0 14.684-.474 21.979-1.43 37.379-4.903 71.261-21.62 97.983-48.341 27.223-27.223 44.539-63.246 48.759-101.435 4.155-37.603-4.438-75.943-24.199-107.959-2.901-4.702-9.061-6.161-13.761-3.26zM149.446 361.574c-3.884-3.928-10.216-3.961-14.143-.078-3.927 3.883-3.961 10.215-.078 14.142l.568.571c1.953 1.953 4.512 2.929 7.071 2.929s5.118-.976 7.071-2.929c3.905-3.905 3.905-10.237 0-14.143l-.489-.492z"/><path d="M300.75 356.995a9.998 9.998 0 0 0 13.584-9.335V179.794a10 10 0 0 0-13.584-9.335l-118.268 45.403h-23.794c-26.393 0-47.863 21.472-47.863 47.864 0 26.393 21.472 47.864 47.863 47.864h23.794l118.268 45.405zm-6.416-23.886l-20-7.678v-61.704c0-5.523-4.478-10-10-10s-10 4.477-10 10v54.026l-59.999-23.034v-61.983l99.999-38.391v138.764zm-163.511-69.382c0-15.365 12.5-27.865 27.864-27.865h15.647v55.728h-15.647c-15.364.001-27.864-12.499-27.864-27.863z"/><path d="M264.334 240.387c5.522 0 10-4.477 10-10v-.146c0-5.523-4.478-10-10-10s-10 4.477-10 10v.146c0 5.523 4.477 10 10 10zm64.136 48.754c1.952 1.953 4.511 2.929 7.07 2.929s5.119-.977 7.071-2.929c14.013-14.014 14.013-36.815 0-50.827-3.905-3.905-10.235-3.905-14.143 0-3.905 3.905-3.905 10.237 0 14.142 6.215 6.215 6.215 16.329 0 22.545-3.905 3.903-3.905 10.235.002 14.14z"/><path d="M353.272 299.803c-3.905 3.905-3.905 10.237 0 14.142 1.953 1.953 4.512 2.929 7.071 2.929s5.118-.977 7.071-2.929c27.689-27.69 27.689-72.745 0-100.435-3.905-3.905-10.235-3.905-14.143 0-3.905 3.905-3.905 10.237 0 14.142 19.894 19.891 19.894 52.258.001 72.151z"/></svg>