<svg version="1.1" id="Capa_1" xmlns="http://www.w3.org/2000/svg" x="0" y="0" viewBox="0 0 58 58" xml:space="preserve"><path d="M9.5 43c-2.757 0-5 2.243-5 5s2.243 5 5 5 5-2.243 5-5-2.243-5-5-5zm0 8c-1.654 0-3-1.346-3-3s1.346-3 3-3 3 1.346 3 3-1.346 3-3 3z"/><path d="M56.5 35c0-2.495-1.375-3.662-2.715-4.233A4.992 4.992 0 0 0 55.5 27c0-2.757-2.243-5-5-5H36.134l.729-3.41c.973-4.549.334-9.716.116-11.191C36.461 3.906 33.372 0 30.013 0h-.239C28.178 0 25.5.909 25.5 7c0 8.023-2.002 11.694-3.681 13.36-1.647 1.634-3.231 1.616-3.319 1.64h-1v-2h-16v38h16v-2h28c2.757 0 5-2.243 5-5a4.98 4.98 0 0 0-1.069-3.087A5.008 5.008 0 0 0 53.5 43a4.98 4.98 0 0 0-1.069-3.087A5.008 5.008 0 0 0 56.5 35zm-53 21V22h12v34h-12zm48-18h-11a1 1 0 1 0 0 2h8c1.654 0 3 1.346 3 3s-1.346 3-3 3h-10a1 1 0 1 0 0 2h7c1.654 0 3 1.346 3 3s-1.346 3-3 3h-28V24l.969-.001c.097.019 2.42.05 4.682-2.144C26.037 19.059 27.5 14.061 27.5 7c0-1.867.295-5 2.274-5h.239C32.244 2 34.621 5.13 35 7.691c.207 1.392.81 6.26-.093 10.48L33.662 24H50.5c1.654 0 3 1.346 3 3s-1.346 3-3 3h-10a1 1 0 1 0 0 2h7c.883 0 2.825.04 3.854.193C53.965 32.58 54.5 33.595 54.5 35c0 1.654-1.346 3-3 3z"/></svg>