<svg version="1.1" id="Capa_1" xmlns="http://www.w3.org/2000/svg" x="0" y="0" viewBox="0 0 512 512" xml:space="preserve"><path d="M322.007 112V39.261c0-16.16-13.101-29.261-29.261-29.261H47.268c-16.16 0-29.261 13.101-29.261 29.261v433.478c0 16.16 13.101 29.261 29.261 29.261h245.478c16.16 0 29.261-13.101 29.261-29.261V112z" fill="#72d8ff"/><path fill="#fff" d="M18.011 74h304v353.92h-304z"/><path d="M361.524 300.775c19.37 0 35.072-15.702 35.072-35.072s-15.702-35.072-35.072-35.072v70.144z" fill="#ff5d5d"/><path d="M187.415 313.172h-57.438c-26.197 0-47.435-21.237-47.435-47.435 0-26.197 21.237-47.435 47.435-47.435h57.438v94.87z" fill="#ffb954"/><path fill="#6a80ff" d="M187.41 313.196v67.225h-40.824v-67.249z"/><path fill="#ade5ff" d="M187.41 313.196l.005-94.894 174.109-70.12v235.042z"/><path fill="#d8d8e4" d="M316.842 365.253l44.682 17.971V148.182l-44.682 17.995z"/><path d="M74.007 77.733v27.641c0 17.673 14.327 32 32 32s32-14.327 32-32V77.733h-64z" fill="#fff"/><path d="M18.007 77.733l-8 27.641c0 17.673 14.327 32 32 32s32-14.327 32-32V77.733h-56z" fill="#5a54e0"/><path d="M202.007 77.733v27.641c0 17.673 14.327 32 32 32s32-14.327 32-32V77.733h-64z" fill="#fff"/><path d="M138.007 77.733v27.641c0 17.673 14.327 32 32 32s32-14.327 32-32V77.733h-64zm128 0v27.641c0 17.673 14.327 32 32 32s32-14.327 32-32l-8-27.641h-56z" fill="#5a54e0"/><path d="M149.007 52h42c5.522 0 10-4.477 10-10s-4.478-10-10-10h-42c-5.522 0-10 4.477-10 10s4.477 10 10 10zm21 421.76c2.63 0 5.21-1.07 7.069-2.93 1.86-1.86 2.931-4.44 2.931-7.07s-1.07-5.21-2.931-7.07c-1.859-1.87-4.439-2.93-7.069-2.93s-5.21 1.06-7.07 2.93c-1.86 1.86-2.93 4.44-2.93 7.07s1.069 5.21 2.93 7.07a10.08 10.08 0 0 0 7.07 2.93zm146.83-162.67c-2.63 0-5.21 1.07-7.07 2.93a10.06 10.06 0 0 0-2.93 7.07c0 2.63 1.069 5.21 2.93 7.07a10.08 10.08 0 0 0 7.07 2.93c2.64 0 5.21-1.07 7.069-2.93a10.034 10.034 0 0 0 2.931-7.07c0-2.64-1.061-5.21-2.931-7.07a10.054 10.054 0 0 0-7.069-2.93z"/><path d="M371.524 221.763v-73.581a10 10 0 0 0-13.735-9.276l-25.781 10.383v-19.3c5.025-6.922 8-15.426 8-24.615 0-.94-.133-1.876-.395-2.78l-7.769-26.842c.101-.57.163-1.154.163-1.753V39.261C332.007 17.612 314.395 0 292.747 0H47.268C25.62 0 8.007 17.612 8.007 39.261V74c0 .599.062 1.183.163 1.753L.401 102.595a9.987 9.987 0 0 0-.395 2.78c0 9.189 2.975 17.692 8 24.615v342.75C8.007 494.388 25.62 512 47.268 512h245.479c21.648 0 39.261-17.612 39.261-39.261v-90.608l25.785 10.371a9.992 9.992 0 0 0 9.33-.991 10 10 0 0 0 4.401-8.286v-73.582c20.054-4.562 35.072-22.524 35.072-43.939 0-21.417-15.018-39.379-35.072-43.941zM256.007 105.375c0 12.131-9.869 22-22 22s-22-9.869-22-22V87.733h44v17.642zm-64 0c0 12.131-9.869 22-22 22s-22-9.869-22-22V87.733h44v17.642zm-64 0c0 12.131-9.869 22-22 22s-22-9.869-22-22V87.733h44v17.642zm-64 0c0 12.131-9.869 22-22 22-11.698 0-21.294-9.177-21.963-20.711l5.479-18.93h38.483l.001 17.641zm212-17.642h38.483l5.479 18.93c-.669 11.534-10.265 20.711-21.963 20.711-12.131 0-22-9.869-22-22V87.733h.001zM47.268 20h245.479c10.62 0 19.261 8.64 19.261 19.261V64h-284V39.261C28.007 28.64 36.648 20 47.268 20zm264.739 397.917h-242c-5.522 0-10 4.478-10 10s4.478 10 10 10h242v34.822c0 10.62-8.641 19.261-19.261 19.261H47.268c-10.62 0-19.261-8.641-19.261-19.261V144.966a41.802 41.802 0 0 0 14 2.408c12.81 0 24.29-5.771 32-14.841 7.71 9.07 19.19 14.841 32 14.841s24.29-5.771 32-14.841c7.71 9.07 19.19 14.841 32 14.841s24.29-5.771 32-14.841c7.71 9.07 19.19 14.841 32 14.841s24.29-5.771 32-14.841c7.71 9.07 19.19 14.841 32 14.841 4.908 0 9.618-.854 14-2.408v12.377l-126.529 50.958h-55.501c-31.67 0-57.436 25.765-57.436 57.435s25.766 57.435 57.436 57.435h6.608v57.249c0 5.522 4.478 10 10 10h40.824c5.522 0 10-4.478 10-10v-52.425l114.598 46.091v43.831zM177.41 303.172h-47.433c-20.642 0-37.436-16.793-37.436-37.435s16.794-37.435 37.436-37.435h47.438l-.005 74.87zm-20.825 20h20.824v47.249h-20.824v-47.249zm194.939 45.252l-154.108-61.982v-81.386l109.426-44.07v103.348c0 5.522 4.478 10 10 10s10-4.478 10-10V172.93l24.683-9.941v205.435h-.001zm20-79.736v-45.97c8.861 3.87 15.072 12.714 15.072 22.986 0 10.27-6.211 19.114-15.072 22.984zM501.995 256h-31.99c-5.522 0-10 4.478-10 10s4.478 10 10 10h31.99c5.522 0 10-4.478 10-10s-4.478-10-10-10zm-74.058 2.93c-1.86 1.86-2.93 4.44-2.93 7.07s1.069 5.21 2.93 7.069c1.86 1.86 4.44 2.931 7.07 2.931s5.21-1.07 7.069-2.931c1.86-1.859 2.931-4.439 2.931-7.069s-1.07-5.21-2.931-7.07a10.072 10.072 0 0 0-7.069-2.93c-2.64 0-5.21 1.069-7.07 2.93zm1.023-39.606c2.56 0 5.118-.976 7.071-2.929l19.53-19.53c3.905-3.905 3.905-10.237 0-14.143-3.906-3.905-10.236-3.905-14.143 0l-19.53 19.53c-3.905 3.905-3.905 10.237 0 14.143a9.972 9.972 0 0 0 7.072 2.929zm7.153 94.693c-3.906-3.904-10.236-3.904-14.143 0-3.905 3.905-3.905 10.237 0 14.143l20.183 20.183c1.953 1.952 4.512 2.929 7.071 2.929s5.118-.977 7.071-2.929c3.905-3.905 3.905-10.237 0-14.143l-20.182-20.183z"/></svg>