<svg version="1.1" id="Capa_1" xmlns="http://www.w3.org/2000/svg" x="0" y="0" viewBox="0 0 55 55" xml:space="preserve"><path d="M22.019 25.877a1.004 1.004 0 0 0 1.018-.033l11-7a1.002 1.002 0 0 0 0-1.688l-11-7a1.005 1.005 0 0 0-1.019-.033A1.002 1.002 0 0 0 21.5 11v14c0 .365.199.701.519.877zM23.5 12.821L31.638 18 23.5 23.179V12.821z"/><path d="M.5 0v55h54V0H.5zm52 2v33h-50V2h50zm-50 51V37h50v16h-50z"/><path d="M47.5 44h-24v-2a1 1 0 1 0-2 0v2h-4a1 1 0 1 0 0 2h4v2a1 1 0 1 0 2 0v-2h24a1 1 0 1 0 0-2zm-40-3a1 1 0 0 0-1 1v6a1 1 0 1 0 2 0v-6a1 1 0 0 0-1-1zm4 0a1 1 0 0 0-1 1v6a1 1 0 1 0 2 0v-6a1 1 0 0 0-1-1z"/></svg>