<svg version="1.1" id="Capa_1" xmlns="http://www.w3.org/2000/svg" x="0" y="0" viewBox="0 0 60.017 60.017" xml:space="preserve"><path d="M59.144 3.731L56.294.88a2.991 2.991 0 0 0-4.221.001l-3.126 3.126H0v56h56v-48.91l.305-.305 2.839-2.839a2.989 2.989 0 0 0 0-4.222zM20.047 36.759l3.22 3.22-4.428 1.208 1.208-4.428zm32.015-24.553L47.82 7.964l1.414-1.414 4.243 4.242-1.415 1.414zm-1.414 1.414L25.192 39.076l-4.242-4.242L46.406 9.378l4.242 4.242zM54 13.097v44.91H2v-52h44.947l-28.118 28.12-.188.188-2.121 7.779-1.226 1.226a.999.999 0 1 0 1.414 1.414l1.226-1.226 7.779-2.123 26.351-26.35.447-.447L54 13.097zm3.73-6.558l-2.839 2.839-4.243-4.243 2.839-2.839a.987.987 0 0 1 1.393 0l2.85 2.85a.986.986 0 0 1 0 1.393z"/></svg>