<svg version="1.1" id="Capa_1" xmlns="http://www.w3.org/2000/svg" x="0" y="0" viewBox="0 0 52.974 52.974" xml:space="preserve"><path d="M49.467 3.51c-4.677-4.679-12.291-4.681-16.97 0l-9.192 9.192a.999.999 0 1 0 1.414 1.414l9.192-9.192a9.927 9.927 0 0 1 7.07-2.915c2.681 0 5.191 1.036 7.071 2.916s2.916 4.391 2.916 7.071c0 2.68-1.036 5.19-2.916 7.07L36.033 31.088c-3.898 3.898-10.244 3.898-14.143 0a.999.999 0 1 0-1.414 1.414c2.34 2.339 5.412 3.509 8.485 3.509s6.146-1.17 8.485-3.509L49.467 20.48a11.914 11.914 0 0 0 3.502-8.485c0-3.214-1.244-6.227-3.502-8.485z"/><path d="M26.84 40.279l-7.778 7.778a9.928 9.928 0 0 1-7.071 2.916 9.93 9.93 0 0 1-7.071-2.916c-3.898-3.898-3.898-10.243 0-14.142l11.314-11.314c3.899-3.898 10.244-3.896 14.142 0a.999.999 0 1 0 1.414-1.414c-4.677-4.679-12.291-4.681-16.97 0L3.505 32.502a11.914 11.914 0 0 0-3.501 8.485c0 3.214 1.244 6.227 3.502 8.484s5.271 3.502 8.484 3.502c3.215 0 6.228-1.244 8.485-3.502l7.778-7.778a.999.999 0 1 0-1.413-1.414zm7.129 3.73a1 1 0 0 0-1 1v6a1 1 0 1 0 2 0v-6a1 1 0 0 0-1-1zm4.464-1.707a.999.999 0 1 0-1.414 1.414l4.243 4.242a.997.997 0 0 0 1.414 0 .999.999 0 0 0 0-1.414l-4.243-4.242zm6.536-4.293h-6a1 1 0 1 0 0 2h6a1 1 0 1 0 0-2zm-29-27a1 1 0 0 0 1-1v-6a1 1 0 1 0-2 0v6a1 1 0 0 0 1 1zm-4.465 1.707a.997.997 0 0 0 1.414 0 .999.999 0 0 0 0-1.414L8.676 7.06a.999.999 0 1 0-1.414 1.414l4.242 4.242zm-6.535 4.293h6a1 1 0 1 0 0-2h-6a1 1 0 1 0 0 2z"/></svg>