<svg version="1.1" id="Capa_1" xmlns="http://www.w3.org/2000/svg" x="0" y="0" viewBox="0 0 60 60" xml:space="preserve"><path d="M10.5 7C8.019 7 6 9.019 6 11.5S8.019 16 10.5 16s4.5-2.019 4.5-4.5S12.981 7 10.5 7zm0 7C9.122 14 8 12.879 8 11.5S9.122 9 10.5 9s2.5 1.121 2.5 2.5-1.122 2.5-2.5 2.5z"/><circle cx="50" cy="10" r="1"/><circle cx="46" cy="10" r="1"/><circle cx="52" cy="13" r="1"/><circle cx="48" cy="13" r="1"/><circle cx="42" cy="10" r="1"/><circle cx="44" cy="13" r="1"/><circle cx="38" cy="10" r="1"/><circle cx="40" cy="13" r="1"/><circle cx="34" cy="10" r="1"/><circle cx="36" cy="13" r="1"/><path d="M60 17.392V5.608A4.613 4.613 0 0 0 55.392 1H4.608A4.613 4.613 0 0 0 0 5.608v11.783C0 18.86.703 20.156 1.777 21 .703 21.844 0 23.14 0 24.608v11.783A4.613 4.613 0 0 0 4.608 41H29v8.101A5.016 5.016 0 0 0 25.101 53H1a1 1 0 1 0 0 2h24.101c.465 2.279 2.484 4 4.899 4s4.434-1.721 4.899-4H59a1 1 0 1 0 0-2H34.899A5.016 5.016 0 0 0 31 49.101V41h24.392A4.613 4.613 0 0 0 60 36.392V24.608c0-1.469-.703-2.764-1.777-3.608C59.297 20.156 60 18.86 60 17.392zM33 54c0 1.654-1.346 3-3 3s-3-1.346-3-3 1.346-3 3-3 3 1.346 3 3zm25-29.392v11.783A2.611 2.611 0 0 1 55.392 39H4.608A2.611 2.611 0 0 1 2 36.392V24.608A2.611 2.611 0 0 1 4.608 22h50.783A2.611 2.611 0 0 1 58 24.608zM4.608 20A2.611 2.611 0 0 1 2 17.392V5.608A2.611 2.611 0 0 1 4.608 3h50.783A2.611 2.611 0 0 1 58 5.608v11.783A2.611 2.611 0 0 1 55.392 20H4.608z"/><path d="M10.5 35c2.481 0 4.5-2.019 4.5-4.5S12.981 26 10.5 26 6 28.019 6 30.5 8.019 35 10.5 35zm0-7c1.378 0 2.5 1.121 2.5 2.5S11.878 33 10.5 33 8 31.879 8 30.5 9.122 28 10.5 28z"/><circle cx="50" cy="29" r="1"/><circle cx="46" cy="29" r="1"/><circle cx="52" cy="32" r="1"/><circle cx="48" cy="32" r="1"/><circle cx="42" cy="29" r="1"/><circle cx="44" cy="32" r="1"/><circle cx="38" cy="29" r="1"/><circle cx="40" cy="32" r="1"/><circle cx="34" cy="29" r="1"/><circle cx="36" cy="32" r="1"/></svg>