<svg version="1.1" id="Capa_1" xmlns="http://www.w3.org/2000/svg" x="0" y="0" viewBox="0 0 57 57" xml:space="preserve"><path d="M55.263 16.429a3.751 3.751 0 0 0-3.608-.247L44 19.715v-.131a3.31 3.31 0 0 0-3.307-3.307H36v-5c0-1.654-1.346-3-3-3H1a1 1 0 1 0 0 2h32c.551 0 1 .448 1 1v5H3.307A3.311 3.311 0 0 0 0 19.584v25.387a3.31 3.31 0 0 0 3.307 3.307h37.386A3.31 3.31 0 0 0 44 44.971v-.131l7.655 3.533a3.75 3.75 0 0 0 3.609-.247A3.748 3.748 0 0 0 57 44.954V19.602a3.75 3.75 0 0 0-1.737-3.173zM42 44.971c0 .721-.586 1.307-1.307 1.307H3.307A1.308 1.308 0 0 1 2 44.971V19.584c0-.721.586-1.307 1.307-1.307h37.386c.721 0 1.307.586 1.307 1.307v25.387zm13-.017c0 .614-.297 1.157-.814 1.488a1.727 1.727 0 0 1-1.692.115L44 42.638V21.917l8.493-3.919c.558-.26 1.175-.216 1.692.115s.815.875.815 1.489v25.352z"/></svg>